<svg xmlns="http://www.w3.org/2000/svg" viewBox="0 0 82.042 9.821"><path d="M39.138 6.104l-.39 2.258-1.683 1.459.706-4.082.631-.547zm-1.08-2.02l.657-3.803 1.181 1.438-.344 1.993-1.055.934zm4.56.099l.59.729-.841.729h-3.052l-.59-.73.841-.728zM44.594.006L42.91 1.464h-2.694L39.038.006zm-.73 5.733l-.706 4.078-1.178-1.457.39-2.257 1.051-.911zm-1.08-2.022l.342-1.985L44.804.295l-.656 3.791-.633.56-.733-.93M44.758 5.739l.631-.547.736.911-.342 1.977-.84.729-.59-.73zm2.12-3.995l-.588-.728-.84.728-.406 2.341.44.56 1.053-.925zm3.265 8.074L48.966 8.36H46.01l-.841.729.589.729zM47.455.006l-.84.722.587.736h2.957L51.84.006h-4.386M53.123 6.104l-.39 2.258-1.683 1.459.707-4.082.63-.547zm-1.08-2.02l.706-4.082 1.175 1.473-.388 2.245-1.054.926zm4.561.099l.589.729-.841.729H53.3l-.589-.73.841-.728zm1.243 1.556l-.705 4.078-1.178-1.457.39-2.257 1.052-.911zm-1.08-2.019l.388-2.242L58.839.006l-.705 4.079-.634.56-.733-.925M60.182 5.74l-.706 4.081L58.3 8.362l.39-2.258 1.052-.912zm-1.08-2.02l.388-2.245L61.174.002l-.705 4.082-.634.562-.733-.926" fill="#ec1d26"/><path d="M4.17 2.11L2.837 9.817H1.042L2.375 2.11H0L.365 0H6.91l-.365 2.11H4.17M6.122 9.818L7.82 0h1.806L7.928 9.818H6.122M17.296 9.818h-1.751l.846-4.894-2.761 4.894h-1.117L11.44 4.894l-.852 4.924H8.836L10.534 0h1.773l1.41 6.082L17.233 0h1.762l-1.698 9.818M23.912 9.818H18.2L19.897 0h5.68l-.36 2.081h-3.874l-.32 1.846h3.558l-.34 1.964h-3.557l-.319 1.846h3.908l-.36 2.08M36.164 9.818h-1.751l.846-4.894-2.761 4.894H31.38l-1.074-4.924-.852 4.924h-1.751L29.402 0h1.773l1.41 6.082L36.1 0h1.762l-1.698 9.818M67.38 9.818h-1.49l-2.726-5.685-.984 5.685h-1.806L62.073 0h1.499l2.697 5.861 1.013-5.86h1.795L67.38 9.817M73.99 9.818h-5.713L69.975 0h5.68l-.36 2.081h-3.874l-.32 1.846h3.557l-.34 1.964h-3.556l-.32 1.846h3.907l-.36 2.08M82.04 2.72l-1.855.463c.028-.883-.463-1.318-1.043-1.318a1.16 1.16 0 00-1.157.954c-.069.379.012.66.449.785l1.443.435c1.203.365 1.788 1.248 1.52 2.735-.363 2.006-1.94 3.043-3.571 3.043-1.653 0-2.828-1.01-2.693-2.847l1.944-.462c.012.967.461 1.388 1.194 1.388.679 0 1.154-.393 1.259-.968.076-.42-.03-.687-.53-.827l-1.456-.42c-.995-.31-1.787-1.01-1.478-2.722C76.396 1.136 77.783 0 79.5 0c1.598 0 2.576 1.01 2.54 2.72" fill="#2e2b2d"/></svg>
